<svg xmlns="http://www.w3.org/2000/svg" width="12" height="12" viewBox="0 0 12 12">
    <path fill="#A5A9B4" fill-rule="evenodd" d="M11.6.806h-1.552a8.522 8.522 0 0 0-.052-.694A.126.126 0 0 0 9.874 0H2.065a.126.126 0 0 0-.121.112c-.002.012-.035.27-.053.694H.401a.376.376 0 0 0-.363.325c-.019.111-.323 2.758 1.163 4.661.538.69 1.439 1.18 2.32 1.48a7.582 7.582 0 0 0 1.8 1.883c.141.193.277.541.157 1.126-.177.854-.766.9-.848.896a.114.114 0 0 0-.096.032.136.136 0 0 0-.042.098v.562c0 .072.055.131.123.131h2.71c.067 0 .122-.06.122-.131v-.562a.141.141 0 0 0-.045-.098.128.128 0 0 0-.101-.032c-.079 0-.663-.044-.839-.896-.12-.585.015-.933.156-1.126A7.574 7.574 0 0 0 8.398 7.3c.92-.298 1.847-.797 2.401-1.508 1.486-1.903 1.182-4.55 1.163-4.661a.377.377 0 0 0-.363-.325zm-10.872.79h1.156c.026 1.172.22 2.878.981 4.514-.179-.113-1.03-.373-1.567-1.645-.537-1.273-.597-2.519-.57-2.87zm8.32 4.569c.781-1.653.982-3.384 1.007-4.57h1.218c.028.352.038 1.583-.593 2.88-.632 1.298-1.435 1.573-1.633 1.69z"/>
</svg>
